<svg width="1044" height="698" viewBox="0 0 1044 698" fill="none" xmlns="http://www.w3.org/2000/svg">
<g clip-path="url(#clip0_2_19)">
<path d="M339.745 255.36C337.693 256.319 335.343 256.423 333.214 255.648C331.085 254.873 329.352 253.284 328.396 251.23C320.442 234.185 316.245 215.63 316.091 196.821C315.81 178.876 317.317 160.947 320.588 143.3C321.158 140.305 323.283 137.841 326.162 136.837C329.041 135.833 332.237 136.442 334.546 138.433C336.855 140.424 337.926 143.496 337.356 146.492C334.295 162.999 332.888 179.77 333.157 196.557C333.273 212.975 336.926 229.174 343.867 244.053C345.837 248.314 343.995 253.366 339.745 255.36Z" fill="#247868"/>
<path d="M765.439 319.07C762.633 321.019 759.671 322.732 756.581 324.19C752.895 326.076 746.708 329.233 746.273 331.443C745.737 334.36 746.087 337.372 747.28 340.087C748.551 342.818 749.883 345.165 751.035 347.187C754.158 352.708 759.389 361.958 751.504 368.401C749.661 370.108 746.478 372.574 743.577 374.801C745.712 378.536 746.678 382.825 746.35 387.115C745.897 390.493 744.065 393.533 741.29 395.511C739.395 396.843 737.373 398.003 735.385 399.138C730.333 402.005 728.362 403.345 727.705 406.025C727.23 409.459 727.522 412.956 728.558 416.265C729.061 418.543 729.548 420.83 729.838 423.091C730.685 430.868 729.724 438.736 727.03 446.08C723.192 459.638 710.928 469.084 696.839 469.333C694.488 469.326 692.143 469.078 689.842 468.591C665.464 462.812 641.442 455.624 617.898 447.061C598.672 458.342 586.529 492.646 583.363 505.523C582.418 509.33 579 512.002 575.077 512L360.891 511.403C358.176 511.397 355.626 510.101 354.023 507.911C352.419 505.721 351.953 502.899 352.767 500.309C354.877 494.528 357.786 489.07 361.411 484.096C363.457 481.146 365.302 478.061 366.932 474.863C370.797 467.043 374.019 458.92 376.566 450.577C381.441 434.087 384.82 417.191 386.661 400.094C389.648 374.545 385.757 348.661 375.389 325.12C373.688 321.121 371.668 317.266 369.347 313.591C367.731 311 367.621 307.744 369.057 305.049C370.493 302.354 373.258 300.63 376.31 300.526C379.363 300.422 382.238 301.955 383.854 304.546C386.619 308.96 389.039 313.582 391.09 318.37C402.638 344.693 406.957 373.62 403.6 402.167C401.627 420.291 398.028 438.201 392.848 455.68C390.04 464.853 386.499 473.785 382.258 482.389C380.311 486.254 378.102 489.98 375.645 493.542L375.073 494.396L568.626 494.933C574.291 474.691 584.573 456.038 598.663 440.439L590.983 437.751C585.266 435.755 580.957 434.253 578.747 433.545C542.19 421.982 523.911 405.333 524.406 384.051C524.518 379.419 528.306 375.721 532.94 375.723H533.093C537.803 375.834 541.532 379.742 541.422 384.452C541.217 393.233 548.411 406.042 583.884 417.263C586.196 418.005 590.651 419.558 596.564 421.623C602.905 423.842 610.969 426.658 619.86 429.679H619.92C643.935 438.482 668.438 445.89 693.307 451.866C701.265 453.404 709.018 448.382 710.868 440.491C712.691 435.636 713.377 430.428 712.874 425.267C712.652 423.475 712.242 421.7 711.85 419.917C710.111 414.017 709.856 407.78 711.107 401.758C713.589 393.919 719.357 387.547 726.911 384.299L728.677 383.292C727.756 381.431 726.656 379.665 725.392 378.018C723.96 376.204 723.326 373.887 723.633 371.597C723.94 369.307 725.163 367.239 727.022 365.867C729.07 364.365 733.9 360.747 737.433 357.897C737.023 357.154 736.579 356.335 736.153 355.593C734.813 353.246 733.285 350.515 731.792 347.358C729.092 341.376 728.296 334.709 729.514 328.26C731.562 317.85 741.537 312.747 748.807 309.026C751.263 307.859 753.617 306.492 755.847 304.939C757.662 303.712 759.364 302.327 760.933 300.8C760.933 299.503 759.542 296.363 753.04 288.452C737.756 268.776 724.652 247.501 713.957 224.998C711.958 221.473 710.831 217.52 710.672 213.47C711.553 204.893 716.099 197.115 723.139 192.137C726.553 188.971 729.838 185.984 730.222 183.202C730.165 181.188 729.713 179.205 728.891 177.365C727.5 173.705 725.895 170.121 724.283 166.528C720.784 159.313 717.989 151.777 715.937 144.026L715.084 140.39C713.282 131.859 710.96 123.447 708.129 115.2C701.402 96.6336 690.987 79.6208 677.511 65.1861C661.187 47.9146 635.493 35.6949 601.036 28.8426C592.221 27.0592 583.397 25.3696 574.489 23.7226C570.106 22.6471 567.318 18.3448 568.127 13.9049C568.936 9.46506 573.063 6.42303 577.543 6.96318C586.543 8.5902 595.492 10.2969 604.389 12.0832C642.866 19.7632 670.83 33.2544 689.919 53.4272C704.977 69.5396 716.619 88.5317 724.146 109.261C727.22 118.189 729.745 127.297 731.707 136.533L732.56 140.134C734.381 146.827 736.824 153.335 739.856 159.573C741.563 163.465 743.338 167.356 744.865 171.383C746.829 175.867 747.605 180.781 747.118 185.651C745.401 193.299 740.987 200.072 734.685 204.732C730.512 208.555 727.773 211.251 727.739 213.598C728.044 214.895 728.532 216.142 729.189 217.301C739.408 238.816 751.926 259.161 766.523 277.982C772.709 285.508 779.195 294.289 777.829 303.078C776.019 309.859 771.553 315.624 765.439 319.07Z" fill="#247868"/>
<path d="M446.745 10.7178C449.624 9.71483 452.82 10.3242 455.128 12.3164C457.437 14.3086 458.507 17.3809 457.936 20.3761C457.365 23.3713 455.239 25.8343 452.359 26.8373C437.596 32.0694 423.502 39.0237 410.367 47.5562C406.394 50.0917 401.118 48.9265 398.582 44.9536C396.047 40.9807 397.212 35.7045 401.185 33.169C415.437 23.9217 430.729 16.3861 446.745 10.7178Z" fill="#247868"/>
<path d="M682.708 151.893L681.855 148.181C680.358 141.052 678.452 134.014 676.146 127.104C671 112.861 663.036 99.8012 652.731 88.704C641.67 78.2775 628.134 70.844 613.401 67.1061C610.426 66.2678 608.137 63.8865 607.417 60.8809C606.696 57.8752 607.658 54.7151 609.93 52.6198C612.202 50.5245 615.429 49.8214 618.367 50.7819C635.951 55.3515 652.06 64.3772 665.138 76.9877C677.021 89.7495 686.207 104.778 692.146 121.173C694.704 128.739 696.813 136.45 698.461 144.265L699.314 147.959C700.043 150.939 699.116 154.081 696.887 156.188C694.657 158.295 691.469 159.043 688.535 158.148C685.601 157.253 683.373 154.852 682.7 151.859L682.708 151.893Z" fill="#247868"/>
<path d="M701.2 187.733C696.487 187.733 692.667 183.913 692.667 179.2C692.667 174.487 696.487 170.667 701.2 170.667C705.913 170.667 709.733 174.487 709.733 179.2C709.733 183.913 705.913 187.733 701.2 187.733Z" fill="#247868"/>
<path d="M462.267 128C485.819 128.028 504.905 147.114 504.933 170.667C504.933 175.379 501.113 179.2 496.4 179.2C491.687 179.2 487.867 175.379 487.867 170.667C487.867 156.528 476.405 145.067 462.267 145.067C457.554 145.067 453.733 141.246 453.733 136.533C453.733 131.82 457.554 128 462.267 128Z" fill="#247868"/>
<path d="M308.667 273.067C317.449 273.078 326.01 275.818 333.166 280.909L400.98 216.747C381.688 191.341 380.264 156.606 397.413 129.707L368.298 106.411C348.467 123.986 318.478 123.442 299.298 105.157C280.119 86.8731 278.142 56.9446 294.75 36.2967C311.359 15.6487 341.015 11.1648 362.986 25.9799C384.956 40.7949 391.915 69.97 378.998 93.1072L408.012 116.335C427.49 96.7499 456.042 89.2405 482.636 96.7083L490.043 78.2763C472.415 66.6264 465.997 43.8122 474.964 24.6801C483.932 5.54805 505.572 -4.11432 525.804 1.98084C546.035 8.07599 558.736 28.0848 555.643 48.9866C552.549 69.8883 534.596 85.3599 513.467 85.3333C510.932 85.3025 508.405 85.0483 505.915 84.5739L498.516 102.989C531.126 120.423 546.66 158.636 535.466 193.877L573.2 210.654C588.12 187.903 617.997 180.403 641.893 193.409C665.789 206.416 675.711 235.578 664.706 260.459C653.701 285.34 625.449 297.618 599.75 288.687C574.051 279.757 559.501 252.605 566.297 226.261L528.426 209.434C519.128 225.256 504.493 237.243 487.15 243.243L497.595 290.253C514.879 290.762 529.086 304.051 530.746 321.263C532.407 338.475 521.003 354.235 504.135 358.039C487.266 361.843 470.202 352.504 464.314 336.245C458.426 319.986 465.553 301.886 480.946 294.007L470.527 247.006C467.784 247.306 465.026 247.46 462.267 247.467C444.089 247.474 426.504 240.999 412.671 229.205L344.839 293.376C349.056 300.073 351.306 307.82 351.333 315.733C351.333 339.297 332.231 358.4 308.667 358.4C285.102 358.4 266 339.297 266 315.733C266 292.169 285.102 273.067 308.667 273.067ZM539.067 42.6667C539.089 29.7719 529.518 18.873 516.728 17.2301C503.939 15.5872 491.923 23.7133 488.686 36.1952C485.45 48.677 492.001 61.6182 503.978 66.3979H504.029C507.027 67.6169 510.23 68.2512 513.467 68.2667C520.256 68.2667 526.768 65.5695 531.569 60.7686C536.37 55.9677 539.067 49.4562 539.067 42.6667ZM615.867 273.067C634.718 273.067 650 257.785 650 238.933C650 220.082 634.718 204.8 615.867 204.8C597.015 204.8 581.733 220.082 581.733 238.933C581.733 257.785 597.015 273.067 615.867 273.067ZM496.4 341.333C505.826 341.333 513.467 333.692 513.467 324.267C513.467 314.841 505.826 307.2 496.4 307.2C486.974 307.2 479.333 314.841 479.333 324.267C479.333 333.692 486.974 341.333 496.4 341.333ZM334.267 34.1333C315.415 34.1333 300.133 49.4153 300.133 68.2667C300.133 87.118 315.415 102.4 334.267 102.4C353.118 102.4 368.4 87.118 368.4 68.2667C368.4 49.4153 353.118 34.1333 334.267 34.1333ZM522 170.667C522 137.677 495.256 110.933 462.267 110.933C429.277 110.933 402.533 137.677 402.533 170.667C402.533 203.656 429.277 230.4 462.267 230.4C495.241 230.362 521.962 203.641 522 170.667ZM308.667 341.333C322.805 341.333 334.267 329.872 334.267 315.733C334.267 301.595 322.805 290.133 308.667 290.133C294.528 290.133 283.067 301.595 283.067 315.733C283.067 329.872 294.528 341.333 308.667 341.333Z" fill="#247868"/>
</g>
<path d="M184.47 656C173.02 656 164.545 653.275 159.045 647.825C153.595 642.325 150.87 633.85 150.87 622.4V587.9C150.87 576.35 153.595 567.85 159.045 562.4C164.495 556.9 172.92 554.2 184.32 554.3H202.47C211.87 554.3 219.045 556.25 223.995 560.15C228.945 564 231.82 570.1 232.62 578.45C232.92 580.55 232.52 582.15 231.42 583.25C230.32 584.35 228.72 584.9 226.62 584.9C222.82 584.9 220.62 582.8 220.02 578.6C219.52 574 217.92 570.9 215.22 569.3C212.57 567.7 208.32 566.9 202.47 566.9H184.32C179.02 566.85 174.845 567.45 171.795 568.7C168.795 569.95 166.645 572.125 165.345 575.225C164.095 578.275 163.47 582.5 163.47 587.9V622.4C163.47 627.75 164.095 631.95 165.345 635C166.645 638.05 168.82 640.225 171.87 641.525C174.92 642.775 179.12 643.4 184.47 643.4H202.47C207.12 643.4 210.745 642.9 213.345 641.9C215.995 640.85 217.845 639.025 218.895 636.425C219.945 633.825 220.47 630.15 220.47 625.4V618.35L208.77 618.2C204.57 618.2 202.47 616.1 202.47 611.9C202.47 607.7 204.57 605.6 208.77 605.6L226.77 605.75C230.97 605.75 233.07 607.85 233.07 612.05V625.4C233.07 636.05 230.595 643.825 225.645 648.725C220.695 653.575 212.97 656 202.47 656H184.47ZM279.001 656C269.051 656 261.651 653.6 256.801 648.8C252.001 644 249.601 636.65 249.601 626.75V609.35C249.601 599.3 252.001 591.9 256.801 587.15C261.651 582.35 269.051 579.95 279.001 579.95H291.301C301.301 579.95 308.701 582.35 313.501 587.15C318.301 591.95 320.701 599.35 320.701 609.35V626.6C320.701 636.55 318.301 643.95 313.501 648.8C308.701 653.6 301.301 656 291.301 656H279.001ZM262.201 626.75C262.201 633.2 263.376 637.6 265.726 639.95C268.076 642.25 272.501 643.4 279.001 643.4H291.301C297.851 643.4 302.276 642.225 304.576 639.875C306.926 637.525 308.101 633.1 308.101 626.6V609.35C308.101 602.8 306.926 598.375 304.576 596.075C302.276 593.725 297.851 592.55 291.301 592.55H279.001C274.651 592.55 271.251 593.05 268.801 594.05C266.401 595 264.701 596.7 263.701 599.15C262.701 601.55 262.201 604.95 262.201 609.35V626.75ZM374.069 656C364.119 656 356.719 653.6 351.869 648.8C347.069 643.95 344.669 636.55 344.669 626.6V609.35C344.669 599.35 347.069 591.95 351.869 587.15C356.719 582.35 364.119 579.95 374.069 579.95H403.169V556.7C403.169 552.5 405.269 550.4 409.469 550.4C413.669 550.4 415.769 552.5 415.769 556.7V649.7C415.769 653.9 413.669 656 409.469 656C405.269 656 403.169 653.9 403.169 649.7V648.65C400.819 651.05 397.744 652.875 393.944 654.125C390.144 655.375 385.419 656 379.769 656H374.069ZM374.069 643.4H379.769C386.369 643.4 391.919 642.55 396.419 640.85C400.919 639.15 403.169 636.55 403.169 633.05V592.55H374.069C367.569 592.55 363.144 593.75 360.794 596.15C358.444 598.5 357.269 602.9 357.269 609.35V626.6C357.269 633.1 358.444 637.525 360.794 639.875C363.194 642.225 367.619 643.4 374.069 643.4ZM454.685 656C450.485 656 448.385 653.9 448.385 649.7V592.55H442.835C438.635 592.55 436.535 590.45 436.535 586.25C436.535 582.05 438.635 579.95 442.835 579.95H448.385V579.35C448.385 569.5 450.76 562.225 455.51 557.525C460.26 552.775 467.535 550.4 477.335 550.4C480.935 550.4 482.735 552.5 482.735 556.7C482.735 560.9 480.935 563 477.335 563C471.035 563 466.735 564.125 464.435 566.375C462.135 568.625 460.985 572.95 460.985 579.35V579.95H476.435C480.635 579.95 482.735 582.05 482.735 586.25C482.735 590.45 480.635 592.55 476.435 592.55H460.985V649.7C460.985 653.9 458.885 656 454.685 656ZM525.331 656C516.931 656 510.681 653.95 506.581 649.85C502.481 645.75 500.431 639.5 500.431 631.1C500.431 622.7 502.456 616.45 506.506 612.35C510.606 608.25 516.881 606.2 525.331 606.2H557.056C556.756 600.95 555.381 597.375 552.931 595.475C550.481 593.525 546.281 592.55 540.331 592.55H531.631C526.631 592.55 522.906 592.9 520.456 593.6C518.006 594.25 516.281 595.45 515.281 597.2C514.381 599.3 513.456 600.75 512.506 601.55C511.556 602.35 510.131 602.75 508.231 602.75C506.131 602.75 504.481 602.175 503.281 601.025C502.081 599.825 501.731 598.25 502.231 596.3C503.731 590.65 506.856 586.525 511.606 583.925C516.406 581.275 523.081 579.95 531.631 579.95H540.331C550.331 579.95 557.731 582.35 562.531 587.15C567.331 591.95 569.731 599.35 569.731 609.35V649.7C569.731 653.9 567.631 656 563.431 656C559.231 656 557.131 653.9 557.131 649.7V646.325C551.781 652.775 543.981 656 533.731 656H525.331ZM525.331 643.4H533.731C537.431 643.4 540.906 643.075 544.156 642.425C547.406 641.725 550.181 640.475 552.481 638.675C554.831 636.875 556.381 634.3 557.131 630.95V618.8H525.331C520.381 618.8 517.081 619.625 515.431 621.275C513.831 622.925 513.031 626.2 513.031 631.1C513.031 636.05 513.831 639.35 515.431 641C517.081 642.6 520.381 643.4 525.331 643.4ZM631.59 656C621.69 656 614.39 653.65 609.69 648.95C604.99 644.25 602.64 637 602.64 627.2V592.55H595.29C591.09 592.55 588.99 590.45 588.99 586.25C588.99 582.05 591.09 579.95 595.29 579.95H602.64V569C602.64 564.8 604.74 562.7 608.94 562.7C613.14 562.7 615.24 564.8 615.24 569V579.95H632.49C636.69 579.95 638.79 582.05 638.79 586.25C638.79 590.45 636.69 592.55 632.49 592.55H615.24V627.2C615.24 633.55 616.39 637.85 618.69 640.1C620.99 642.3 625.29 643.4 631.59 643.4C633.54 643.4 635.065 643.9 636.165 644.9C637.315 645.9 637.89 647.5 637.89 649.7C637.89 653.9 635.79 656 631.59 656ZM668.631 656C664.431 656 662.331 653.9 662.331 649.7V556.7C662.331 552.5 664.431 550.4 668.631 550.4C672.831 550.4 674.931 552.5 674.931 556.7V588.725C680.231 582.875 688.031 579.95 698.331 579.95H702.531C712.531 579.95 719.931 582.35 724.731 587.15C729.531 591.95 731.931 599.35 731.931 609.35V649.7C731.931 653.9 729.831 656 725.631 656C721.431 656 719.331 653.9 719.331 649.7V609.35C719.331 602.8 718.131 598.375 715.731 596.075C713.381 593.725 708.981 592.55 702.531 592.55H698.331C692.331 592.55 687.106 593.25 682.656 594.65C678.206 596 675.631 598.15 674.931 601.1V649.7C674.931 653.9 672.831 656 668.631 656ZM770.648 623.15V626.75C770.648 633.2 771.823 637.6 774.173 639.95C776.523 642.25 780.948 643.4 787.448 643.4H799.748C804.848 643.4 808.623 642.925 811.073 641.975C813.523 641.025 815.148 639.35 815.948 636.95C816.498 635.05 817.248 633.6 818.198 632.6C819.198 631.6 820.698 631.1 822.698 631.1C824.798 631.1 826.398 631.65 827.498 632.75C828.598 633.85 828.948 635.45 828.548 637.55C827.448 643.75 824.498 648.375 819.698 651.425C814.898 654.475 808.248 656 799.748 656H787.448C777.498 656 770.098 653.6 765.248 648.8C760.448 644 758.048 636.65 758.048 626.75V609.35C758.048 599.2 760.448 591.75 765.248 587C770.098 582.2 777.498 579.85 787.448 579.95H799.748C809.748 579.95 817.148 582.35 821.948 587.15C826.748 591.9 829.148 599.3 829.148 609.35V616.85C829.148 621.05 827.048 623.15 822.848 623.15H770.648ZM787.448 592.55C780.948 592.45 776.523 593.575 774.173 595.925C771.823 598.275 770.648 602.75 770.648 609.35V610.55H816.548V609.35C816.548 602.8 815.373 598.375 813.023 596.075C810.723 593.725 806.298 592.55 799.748 592.55H787.448ZM863.016 656C858.816 656 856.716 653.9 856.716 649.7V586.25C856.716 582.05 858.816 579.95 863.016 579.95C867.216 579.95 869.316 582.05 869.316 586.25V592.1C872.266 588.1 876.016 585.075 880.566 583.025C885.166 580.975 890.416 579.95 896.316 579.95C900.516 579.95 902.616 582.05 902.616 586.25C902.616 590.45 900.516 592.55 896.316 592.55C887.666 592.55 881.066 594.15 876.516 597.35C871.966 600.55 869.566 604.775 869.316 610.025V649.7C869.316 653.9 867.216 656 863.016 656Z" fill="#247868"/>
<path d="M0 689H1044" stroke="#247868" stroke-width="18"/>
<defs>
<clipPath id="clip0_2_19">
<rect width="512" height="512" fill="white" transform="matrix(-1 0 0 1 778 0)"/>
</clipPath>
</defs>
</svg>
